<svg xmlns="http://www.w3.org/2000/svg" viewBox="0 0 900 600" role="img" aria-label="Fuerte de Andalgala">
  <rect width="900" height="600" fill="#d6e3d1"/>
  <path d="M0 360c120-70 225-48 330-94 112-49 190-128 318-108 101 16 176 94 252 76v366H0z" fill="#78916c"/>
  <path d="M0 420c148-46 235-22 346-58 140-45 228-90 354-55 72 20 135 51 200 38v255H0z" fill="#4f694f"/>
  <rect x="260" y="250" width="380" height="170" fill="#a76f47"/>
  <rect x="310" y="205" width="90" height="215" fill="#8b5635"/>
  <rect x="500" y="205" width="90" height="215" fill="#8b5635"/>
  <path d="M245 250h410l-40-55H285z" fill="#70412a"/>
  <rect x="420" y="330" width="65" height="90" rx="8" fill="#3b2a22"/>
  <circle cx="135" cy="130" r="58" fill="#f4c96f"/>
  <text x="450" y="505" text-anchor="middle" font-family="Arial, sans-serif" font-size="42" font-weight="700" fill="#ffffff">Fuerte de Andalgala</text>
</svg>
